<?xml version="1.0" encoding="UTF-8" standalone="no"?>
<!-- Created with Inkscape (http://www.inkscape.org/) -->

<svg
   width="70.695297mm"
   height="77.347031mm"
   viewBox="0 0 70.695296 77.347031"
   version="1.1"
   id="svg1936"
   inkscape:version="1.2.1 (9c6d41e410, 2022-07-14, custom)"
   sodipodi:docname="logo.svg"
   xml:space="preserve"
   xmlns:inkscape="http://www.inkscape.org/namespaces/inkscape"
   xmlns:sodipodi="http://sodipodi.sourceforge.net/DTD/sodipodi-0.dtd"
   xmlns:xlink="http://www.w3.org/1999/xlink"
   xmlns="http://www.w3.org/2000/svg"
   xmlns:svg="http://www.w3.org/2000/svg"><sodipodi:namedview
     id="namedview1938"
     pagecolor="#ffffff"
     bordercolor="#999999"
     borderopacity="1"
     inkscape:showpageshadow="0"
     inkscape:pageopacity="0"
     inkscape:pagecheckerboard="0"
     inkscape:deskcolor="#d1d1d1"
     inkscape:document-units="mm"
     showgrid="false"
     inkscape:zoom="1.1300912"
     inkscape:cx="241.13098"
     inkscape:cy="246.88273"
     inkscape:window-width="1916"
     inkscape:window-height="1031"
     inkscape:window-x="1920"
     inkscape:window-y="47"
     inkscape:window-maximized="1"
     inkscape:current-layer="layer1" /><defs
     id="defs1933"><linearGradient
       inkscape:collect="always"
       id="linearGradient1633"><stop
         style="stop-color:#48c8c6;stop-opacity:1;"
         offset="0"
         id="stop1629" /><stop
         style="stop-color:#3fb2f3;stop-opacity:1;"
         offset="1"
         id="stop1631" /></linearGradient><linearGradient
       inkscape:collect="always"
       xlink:href="#linearGradient1633"
       id="linearGradient1635"
       x1="101.30834"
       y1="101.3355"
       x2="101.30834"
       y2="179.24088"
       gradientUnits="userSpaceOnUse"
       gradientTransform="translate(46.312652,22.546799)" /></defs><g
     inkscape:label="Layer 1"
     inkscape:groupmode="layer"
     id="layer1"
     transform="translate(-66.448383,-101.35829)"><path
       style="fill:url(#linearGradient1635);fill-opacity:1;stroke:none;stroke-width:0.999996"
       d="m 66.554036,178.70532 c 0.645323,-0.74008 1.136925,-1.59789 1.823479,-2.31689 1.316856,-1.37926 3.006574,-2.40752 4.728544,-3.19598 3.656032,-1.6741 7.678573,-1.44236 11.59205,-1.44236 5.974739,0 11.969743,0.14485 17.942471,-0.002 10.31269,-0.25259 20.31481,-5.12518 26.76764,-13.20333 2.8457,-3.56248 5.05897,-7.70468 6.309,-12.09604 1.2089,-4.24643 1.69798,-8.70321 1.27916,-13.10406 -0.4661,-4.89798 -1.90251,-9.5847 -4.24763,-13.91045 -8.53064,-15.73575 -28.29941,-22.156959 -44.623429,-15.42136 -4.458199,1.83951 -8.560173,4.68087 -11.890514,8.16373 -5.014115,5.24373 -8.38095,12.16056 -9.349945,19.35368 -0.721629,5.35763 -0.330826,10.92907 -0.330826,16.32966 v 30.84493 m 21.772888,-38.00176 c 2.477167,5.74139 9.18866,9.88327 15.422456,9.0436 1.36575,-0.18405 2.77111,-0.64733 4.03201,-1.19861 1.01749,-0.44483 1.96068,-1.01002 3.12482,-0.86064 3.20202,0.41098 5.54614,3.99846 3.94886,7.0268 -0.50108,0.95005 -1.73578,1.5744 -2.63846,2.08859 -2.88087,1.64123 -6.03572,2.05572 -9.27363,2.36387 -13.228641,1.2589 -24.607899,-10.89158 -24.291384,-23.80603 0.307039,-12.53271 12.135058,-23.53115 24.694584,-22.67112 5.8063,0.39766 11.16042,3.26936 15.22077,7.34946 3.56681,3.58406 6.18933,8.64132 6.66047,13.70885 0.21602,2.32365 0.17167,4.7724 -2.02356,6.19439 -1.28158,0.83018 -2.67071,0.76084 -4.13282,0.76084 h -5.94723 -24.796886 m -0.100804,-9.57604 h 27.51851 c -0.0784,-0.72183 -0.6043,-1.34336 -1.02363,-1.9152 -1.07826,-1.47039 -2.36165,-2.81496 -3.81479,-3.91811 -5.93442,-4.50498 -13.565315,-3.92235 -19.051275,0.97815 -1.310808,1.17101 -3.221278,3.07825 -3.628815,4.85516 z"
       id="path13804" /></g></svg>
