<?xml version="1.0" encoding="UTF-8" standalone="no"?>
<svg
   id="hg-readme-banner-v2"
   viewBox="0 0 800 200"
   width="800"
   height="200"
   version="1.1"
   sodipodi:docname="project.svg"
   xml:space="preserve"
   inkscape:version="1.4.1 (93de688d07, 2025-03-30)"
   xmlns:inkscape="http://www.inkscape.org/namespaces/inkscape"
   xmlns:sodipodi="http://sodipodi.sourceforge.net/DTD/sodipodi-0.dtd"
   xmlns:xlink="http://www.w3.org/1999/xlink"
   xmlns="http://www.w3.org/2000/svg"
   xmlns:svg="http://www.w3.org/2000/svg"><sodipodi:namedview
     id="namedview4"
     pagecolor="#ffffff"
     bordercolor="#999999"
     borderopacity="1"
     inkscape:showpageshadow="0"
     inkscape:pageopacity="0"
     inkscape:pagecheckerboard="0"
     inkscape:deskcolor="#d1d1d1"
     inkscape:zoom="1.116875"
     inkscape:cx="370.22943"
     inkscape:cy="100.2798"
     inkscape:window-width="1916"
     inkscape:window-height="1031"
     inkscape:window-x="1920"
     inkscape:window-y="27"
     inkscape:window-maximized="1"
     inkscape:current-layer="hg-readme-banner-v2" /><defs
     id="defs2"><linearGradient
       id="a"
       x1="112.46"
       y1="309.13"
       x2="314.5"
       y2="309.13"
       gradientUnits="userSpaceOnUse"
       gradientTransform="translate(-33.985 -122.816)"><stop
         offset="0"
         stop-color="#1992f4"
         id="stop1" /><stop
         offset="1"
         stop-color="#2b8af6"
         id="stop2" /></linearGradient><linearGradient
       inkscape:collect="always"
       id="linearGradient1633"><stop
         style="stop-color:#48c8c6;stop-opacity:1;"
         offset="0"
         id="stop1629" /><stop
         style="stop-color:#3fb2f3;stop-opacity:1;"
         offset="1"
         id="stop1631" /></linearGradient><linearGradient
       inkscape:collect="always"
       xlink:href="#linearGradient1633"
       id="linearGradient1635"
       x1="101.30834"
       y1="101.3355"
       x2="101.30834"
       y2="179.24088"
       gradientUnits="userSpaceOnUse"
       gradientTransform="matrix(3.7795276,0,0,3.7795276,272.44254,-90.951366)" /></defs><style
     id="style2">.st3{font-family:'OpenSans-Bold'}.st4{font-size:29.5168px}.st5{fill-rule:evenodd;clip-rule:evenodd;fill:none}.st7{font-family:'OpenSans'}.st8{font-size:12px}@media (prefers-color-scheme:dark){text{fill:#f0f6fc!important}}</style><text
     y="107.939"
     x="192.432"
     style="font-family:'Open Sans', sans-serif;-inkscape-font-specification:'OpenSans-Bold, Bold';font-variant-ligatures:normal;font-variant-caps:normal;font-variant-numeric:normal;font-feature-settings:normal;text-align:start"
     class="st3 st4"
     font-weight="700"
     font-size="29.517"
     font-family="'Open Sans',sans-serif"
     fill="#3f3e4b"
     id="text2">hausgold/ejabberd</text><path
     class="st5"
     clip-rule="evenodd"
     fill="none"
     fill-rule="evenodd"
     d="M194.24 119.6h314.5v24h-314.5z"
     id="path2" /><text
     y="128.757"
     x="194.217"
     style="font-family:'Open Sans', sans-serif;-inkscape-font-specification:'Open Sans, sans-serif, Normal';font-variant-ligatures:normal;font-variant-caps:normal;font-variant-numeric:normal;font-feature-settings:normal;text-align:start"
     class="st7 st8"
     font-weight="400"
     font-size="12"
     font-family="'Open Sans',sans-serif"
     opacity=".75"
     fill="#3f3e4b"
     id="text3">mDNS enabled ejabberd development image</text><path
     style="fill:url(#linearGradient1635);fill-opacity:1;stroke:none;stroke-width:3.77951"
     d="m 46.969243,160.21417 c 1.004751,-1.15229 1.770159,-2.48787 2.839103,-3.60733 2.050304,-2.14747 4.681146,-3.74844 7.3622,-4.97604 5.69233,-2.60653 11.955308,-2.24571 18.048472,-2.24571 9.302488,0 18.636532,0.22552 27.935892,-0.003 16.05654,-0.39327 31.62954,-7.97975 41.67641,-20.55719 4.43067,-5.54667 7.87666,-11.99595 9.82292,-18.83317 1.88222,-6.61156 2.6437,-13.550635 1.99161,-20.402624 -0.7257,-7.625826 -2.96215,-14.92291 -6.61343,-21.657972 C 136.75047,43.430745 105.97109,33.433114 80.555087,43.920238 73.613804,46.7843 67.227155,51.208213 62.041913,56.630923 54.235085,64.795252 48.993026,75.564548 47.484329,86.764019 46.360775,95.105687 46.969243,103.78025 46.969243,112.18881 v 48.02463 m 33.899732,-59.1676 c 3.856874,8.93917 14.306466,15.38796 24.012305,14.08061 2.12643,-0.28655 4.31453,-1.00787 6.27771,-1.8662 1.5842,-0.69258 3.05272,-1.57257 4.86525,-1.33998 4.98545,0.63988 8.63518,6.22548 6.14826,10.94051 -0.78017,1.4792 -2.70256,2.45129 -4.108,3.25187 -4.48543,2.55535 -9.39744,3.2007 -14.43876,3.68048 C 83.029137,131.7532 65.311975,112.83526 65.80478,92.727852 66.28283,73.2148 84.698702,56.090558 104.2535,57.4296 c 9.04024,0.619146 17.37644,5.090297 23.69829,11.44289 5.55341,5.580273 9.63659,13.454273 10.37015,21.344265 0.33633,3.617853 0.26728,7.430484 -3.15062,9.64448 -1.99539,1.292565 -4.15822,1.184605 -6.43468,1.184605 H 119.47698 80.868975 M 80.712027,86.136234 h 42.845493 c -0.12207,-1.123869 -0.94088,-2.091573 -1.59376,-2.981908 -1.67882,-2.289354 -3.67702,-4.382809 -5.93952,-6.10038 -9.23971,-7.014118 -21.120784,-6.106983 -29.66226,1.52295 -2.040886,1.823227 -5.015433,4.792743 -5.649953,7.559338 z"
     id="path13804" /></svg>
