<?xml version="1.0" encoding="UTF-8" standalone="no"?>
<svg
   version="1.1"
   id="Ebene_1"
   x="0px"
   y="0px"
   viewBox="0 0 800 200"
   xml:space="preserve"
   width="800"
   height="200"
   sodipodi:docname="project.svg"
   inkscape:version="1.2.1 (9c6d41e410, 2022-07-14, custom)"
   inkscape:export-filename="project.png"
   inkscape:export-xdpi="96"
   inkscape:export-ydpi="96"
   xmlns:inkscape="http://www.inkscape.org/namespaces/inkscape"
   xmlns:sodipodi="http://sodipodi.sourceforge.net/DTD/sodipodi-0.dtd"
   xmlns:xlink="http://www.w3.org/1999/xlink"
   xmlns="http://www.w3.org/2000/svg"
   xmlns:svg="http://www.w3.org/2000/svg"
   xmlns:rdf="http://www.w3.org/1999/02/22-rdf-syntax-ns#"
   xmlns:cc="http://creativecommons.org/ns#"
   xmlns:dc="http://purl.org/dc/elements/1.1/"><sodipodi:namedview
   pagecolor="#ffffff"
   bordercolor="#666666"
   borderopacity="1"
   objecttolerance="10"
   gridtolerance="10"
   guidetolerance="10"
   inkscape:pageopacity="0"
   inkscape:pageshadow="2"
   inkscape:window-width="1916"
   inkscape:window-height="1031"
   id="namedview13"
   showgrid="false"
   inkscape:zoom="1.410678"
   inkscape:cx="298.08361"
   inkscape:cy="204.86602"
   inkscape:window-x="1920"
   inkscape:window-y="47"
   inkscape:window-maximized="0"
   inkscape:current-layer="Ebene_1"
   inkscape:showpageshadow="0"
   inkscape:pagecheckerboard="0"
   inkscape:deskcolor="#d1d1d1" /><metadata
   id="metadata33"><rdf:RDF><cc:Work
       rdf:about=""><dc:format>image/svg+xml</dc:format><dc:type
         rdf:resource="http://purl.org/dc/dcmitype/StillImage" /></cc:Work></rdf:RDF></metadata><defs
   id="defs31">

<linearGradient
   inkscape:collect="always"
   xlink:href="#linearGradient1633"
   id="linearGradient1635"
   x1="45.955231"
   y1="88.564453"
   x2="45.955231"
   y2="121.87054"
   gradientUnits="userSpaceOnUse"
   gradientTransform="matrix(3.7795276,0,0,3.7795276,-76.103542,-297.87019)" /><linearGradient
   inkscape:collect="always"
   id="linearGradient1633"><stop
     style="stop-color:#48c8c6;stop-opacity:1;"
     offset="0"
     id="stop1629" /><stop
     style="stop-color:#3fb2f3;stop-opacity:1;"
     offset="1"
     id="stop1631" /></linearGradient></defs>
<style
   type="text/css"
   id="style2">
    .st0{fill-rule:evenodd;clip-rule:evenodd;fill:#E73E11;}
    .st1{fill-rule:evenodd;clip-rule:evenodd;fill:#0371B9;}
    .st2{fill:#132E48;}
    .st3{font-family:'OpenSans-Bold';}
    .st4{font-size:29.5168px;}
    .st5{fill-rule:evenodd;clip-rule:evenodd;fill:none;}
    .st6{opacity:0.5;fill:#132E48;}
    .st7{font-family:'OpenSans';}
    .st8{font-size:12px;}
</style>
<text
   class="st2 st3 st4"
   id="text10"
   style="font-style:normal;font-variant:normal;font-weight:bold;font-stretch:normal;font-size:29.5173px;font-family:'Open Sans', sans-serif;-inkscape-font-specification:'OpenSans-Bold, Bold';font-variant-ligatures:normal;font-variant-caps:normal;font-variant-numeric:normal;font-feature-settings:normal;text-align:start;writing-mode:lr-tb;text-anchor:start;fill:#132e48"
   x="192.43155"
   y="107.939">hausgold/ejabberd</text>
<rect
   x="194.23985"
   y="119.60001"
   class="st5"
   width="314.5"
   height="24"
   id="rect12"
   style="clip-rule:evenodd;fill:none;fill-rule:evenodd" /><text
   class="st6 st7 st8"
   id="text14"
   style="font-style:normal;font-variant:normal;font-weight:normal;font-stretch:normal;font-size:12px;font-family:'Open Sans', sans-serif;-inkscape-font-specification:'Open Sans, sans-serif, Normal';font-variant-ligatures:normal;font-variant-caps:normal;font-variant-numeric:normal;font-feature-settings:normal;text-align:start;writing-mode:lr-tb;text-anchor:start;opacity:0.5;fill:#132e48"
   x="194.21715"
   y="128.75729">mDNS enabled ejabberd development image</text>

<path
   style="fill:url(#linearGradient1635);fill-opacity:1;stroke:none;stroke-width:3.77951"
   d="m 40.404589,163.473 c 1.059138,-1.21465 1.865981,-2.62254 2.992789,-3.8026 2.161293,-2.26371 4.934547,-3.95135 7.760734,-5.24541 6.000471,-2.74762 12.602475,-2.36728 19.025475,-2.36728 9.80606,0 19.645373,0.23774 29.448123,-0.003 16.92573,-0.41456 33.34173,-8.41171 43.93246,-21.66999 4.67051,-5.84693 8.30304,-12.64533 10.35466,-19.85266 1.98411,-6.96946 2.78681,-14.284159 2.09942,-21.507064 -0.76499,-8.038821 -3.1225,-15.730911 -6.97143,-22.830559 -14.00093,-25.826335 -46.44647,-36.365155 -73.238313,-25.31034 -7.31703,3.0191 -14.0494,7.682485 -19.51533,13.398739 -8.229428,8.606283 -13.755254,19.958547 -15.345619,31.764272 -1.184375,8.793222 -0.542969,17.937362 -0.542969,26.801092 v 50.62433 m 35.734798,-62.37048 c 4.065663,9.42307 15.080913,16.22094 25.312153,14.84283 2.24154,-0.30207 4.54809,-1.06243 6.61754,-1.96722 1.66996,-0.73008 3.21797,-1.6577 5.12862,-1.41253 5.25532,0.67453 9.10261,6.56249 6.48108,11.53276 -0.8224,1.55927 -2.84886,2.58398 -4.33039,3.4279 -4.72823,2.69367 -9.90613,3.37395 -15.22036,3.87971 -21.711543,2.06617 -40.387773,-17.87583 -39.868293,-39.071705 0.50393,-20.569339 19.916693,-38.620553 40.530043,-37.20903 9.52961,0.652662 18.31707,5.365846 24.98113,12.062319 5.85403,5.882348 10.15825,14.182587 10.93151,22.499682 0.35454,3.813697 0.28175,7.832713 -3.32117,10.166557 -2.1034,1.362537 -4.38331,1.248727 -6.78301,1.248727 h -9.7609 -40.697953 m -0.16544,-15.716694 h 45.164823 c -0.12868,-1.184705 -0.99181,-2.204793 -1.68004,-3.143326 -1.7697,-2.413281 -3.87606,-4.62006 -6.26103,-6.430608 -9.73988,-7.393809 -22.2641,-6.437565 -31.26795,1.605391 -2.151373,1.921923 -5.286933,5.052185 -5.955803,7.968543 z"
   id="path13804" /></svg>
